<svg id="Capa_1" enable-background="new 0 0 512 512" height="512" viewBox="0 0 512 512" width="512" xmlns="http://www.w3.org/2000/svg"><g><g><g><g><g><g><g><path d="m0 256c0-141.385 114.615-256 256-256s256 114.615 256 256c0 122.686-86.303 225.215-201.511 250.189-17.559 3.806-91.426 3.806-108.988-.002-115.203-24.978-201.501-127.505-201.501-250.187z" fill="#ff6c52"/></g></g></g></g></g></g><path d="m310.606 506.163c115.15-25.018 201.394-127.519 201.394-250.163 0-20.383-2.382-40.209-6.883-59.216l-90.055-90.055-136.266 43.617-43.617-43.617-138.241 45.284 51.557 51.558-51.557 18.787 99.953 99.953-5.833 144.164 39.647 39.647z" fill="#f92814"/><g><g><path d="m141.723 106.729h93.456v45.284h-93.456z" fill="#fff"/></g><g><path d="m141.723 177.073h93.456v45.284h-93.456z" fill="#fff"/></g><g><path d="m320.908 106.729h94.154v45.284h-94.154z" fill="#e9edf5"/></g><g><path d="m320.908 177.073h94.154v45.284h-94.154z" fill="#e9edf5"/></g></g><g><g><path d="m96.938 106.729h48.3v45.284h-48.3z" fill="#636978"/></g><g><path d="m96.938 177.073h48.3v45.284h-48.3z" fill="#636978"/></g><g><path d="m276.821 106.729h48.3v45.284h-48.3z" fill="#414952"/></g><g><path d="m276.821 177.073h48.3v45.284h-48.3z" fill="#414952"/></g></g><g><path d="m318.95 321.669c-9.939-.33-18.072 7.625-18.072 17.462 0 0-.022 63.424-.036 63.439l-10.856-5.624c.012-.014.031-58.423.031-58.423 0-.421.011-.839.033-1.255.557-10.567 9.253-22.515 20.556-24.244.029-.004 6.84 0 6.84 0v-96.913c0-9.19-7.451-16.641-16.641-16.641-9.191 0-16.641 7.451-16.641 16.641v103.322h-6.311v-25.469c0-9.023-7.017-16.709-16.034-17.029-9.467-.336-17.248 7.238-17.248 16.63v33.453h-5.235v-18.481c0-8.652-7.014-15.665-15.666-15.665s-15.665 7.014-15.665 15.665v27.963h-5.235v-12.491c0-7.452-6.098-13.78-13.549-13.641-7.225.135-13.041 6.035-13.041 13.292v11.255 100.596h.207c1.474 16.682 11.214 30.985 25.096 38.794.012.006.019.019.019.032v31.848c17.561 3.809 35.795 5.815 54.498 5.815 18.741 0 37.011-2.014 54.606-5.837 0-16.411 0-29.561 0-29.561 0-.015.008-.028.021-.034 14.828-6.628 25.193-21.508 25.193-38.772v-98.254c.001-9.486-7.389-17.558-16.87-17.873z" fill="#ffdecf"/></g><g><path d="m318.95 321.669c-9.938-.33-18.072 7.625-18.072 17.462 0 0-.022 63.424-.036 63.438l-10.856-5.624c.012-.014.031-58.423.031-58.423 0-.421.011-.839.033-1.255.557-10.567 9.253-22.515 20.556-24.244.029-.004 6.84 0 6.84 0v-96.913c0-9.19-7.45-16.641-16.641-16.641s-16.641 7.451-16.641 16.641v103.322h-6.311v-25.469c0-9.023-7.017-16.708-16.034-17.029-2.099-.075-4.107.259-5.974.896v234.167c.052 0 .104.002.156.002 18.741 0 37.011-2.014 54.606-5.837 0-16.411 0-29.561 0-29.561 0-.015.008-.028.021-.034 14.828-6.628 25.193-21.508 25.193-38.772v-98.254c0-9.485-7.39-17.557-16.871-17.872z" fill="#ffbeaa"/></g></g></svg>